<?xml version="1.0" encoding="iso-8859-1"?>
<!-- Generator: Adobe Illustrator 19.0.0, SVG Export Plug-In . SVG Version: 6.00 Build 0)  -->
<svg version="1.1" id="Capa_1" xmlns="http://www.w3.org/2000/svg" xmlns:xlink="http://www.w3.org/1999/xlink" x="0px" y="0px"
	 viewBox="0 0 512 512" style="enable-background:new 0 0 512 512;" xml:space="preserve">
<g>
	<path style="fill:#BBFBFD;" d="M482,286v58.5c0,8.399-6.599,15-15,15s-15-6.601-15-15V286c0-8.401,6.599-15,15-15
		S482,277.599,482,286z"/>
	<path style="fill:#BBFBFD;" d="M421,286v60c0,8.399-6.599,15-15,15s-15-6.601-15-15v-60c0-8.401,6.599-15,15-15
		S421,277.599,421,286z"/>
	<path style="fill:#BBFBFD;" d="M360,286v60c0,8.399-6.599,15-15,15s-15-6.601-15-15v-60c0-8.401,6.599-15,15-15
		S360,277.599,360,286z"/>
	<path style="fill:#BBFBFD;" d="M300,286v60c0,8.399-6.599,15-15,15s-15-6.601-15-15v-60c0-8.401,6.599-15,15-15
		S300,277.599,300,286z"/>
	<path style="fill:#BBFBFD;" d="M240,286v60c0,8.399-6.599,15-15,15s-15-6.601-15-15v-60c0-8.401,6.599-15,15-15
		S240,277.599,240,286z"/>
	<path style="fill:#BBFBFD;" d="M180,286v60c0,8.399-6.599,15-15,15s-15-6.601-15-15v-60c0-8.401,6.599-15,15-15
		S180,277.599,180,286z"/>
</g>
<g>
	<path style="fill:#72ECFF;" d="M150,316h30v30c0,8.399-6.599,15-15,15s-15-6.601-15-15V316z"/>
	<path style="fill:#72ECFF;" d="M210,316h30v30c0,8.399-6.599,15-15,15s-15-6.601-15-15V316z"/>
	<path style="fill:#72ECFF;" d="M270,316h30v30c0,8.399-6.599,15-15,15s-15-6.601-15-15V316z"/>
	<path style="fill:#72ECFF;" d="M330,316h30v30c0,8.399-6.599,15-15,15s-15-6.601-15-15V316z"/>
	<path style="fill:#72ECFF;" d="M391,316h30v30c0,8.399-6.599,15-15,15s-15-6.601-15-15V316z"/>
	<path style="fill:#72ECFF;" d="M482,316v28.5c0,8.399-6.599,15-15,15s-15-6.601-15-15V316H482z"/>
</g>
<path style="fill:#98CB51;" d="M135,301h362c8.401,0,15-6.601,15-15v-30c0-57.9-48.1-105-106-105h-77.5c-6.901-34.2-37.2-60-73.5-60
	c-24.6,0-46.199,11.999-60,30.599C181.199,102.999,159.6,91,135,91c-39.6,0-72.001,31.199-74.399,70.199C24,178.299,0,215.2,0,256
	v60c0,57.9,47.1,105,104.7,105h334.1c40.499,0,73.2-32.701,73.2-75.3c-0.3-5.7-3.3-10.499-8.401-13.2C500.6,331.3,498.3,331,255,331
	H135c-8.401,0-15-6.601-15-15C120,307.599,126.599,301,135,301z"/>
<g>
	<circle style="fill:#3C3A41;" cx="135" cy="166" r="15"/>
	<path style="fill:#3C3A41;" d="M270,166c0,8.399-6.599,15-15,15s-15-6.601-15-15c0-8.401,6.599-15,15-15S270,157.599,270,166z"/>
	<path style="fill:#3C3A41;" d="M421,241h-15c-8.291,0-15-6.709-15-15s6.709-15,15-15h15c8.291,0,16,6.709,16,15
		S429.291,241,421,241z"/>
</g>
<path style="fill:#60C244;" d="M512,345.7c0,42.599-32.701,75.3-73.2,75.3H104.7C47.1,421,0,373.9,0,316h120c0,8.399,6.599,15,15,15
	h120c243.3,0,245.6,0.3,248.599,1.5C508.7,335.2,511.7,340,512,345.7z"/>
<g>
</g>
<g>
</g>
<g>
</g>
<g>
</g>
<g>
</g>
<g>
</g>
<g>
</g>
<g>
</g>
<g>
</g>
<g>
</g>
<g>
</g>
<g>
</g>
<g>
</g>
<g>
</g>
<g>
</g>
</svg>
